# xmcd
#
# Track frame offsets: 
#        150
#        10847
#        17390
#        29520
#        39485
#        48925
#        59963
#        68455
#        78881
#        87366
#        97328
#        108945
#
# Disc length: 1557 seconds
#
# Revision: 0
# Processed by: cddbd v1.5.2PL0 Copyright (c) Steve Scherf et al.
# Submitted via: ExactAudioCopy v1.0b3
#
DISCID=9106130c
DTITLE=The Buckaroos - Meanwhile Back at the Ranch
DYEAR=1968
DGENRE=Country
TTITLE0=I'm Goin' Back Home Where I Belong
TTITLE1=Runnin' Short
TTITLE2=You Let Me Down
TTITLE3=Spanish Moonlight
TTITLE4=Louisiana Waltz
TTITLE5=Pitty Pitty Patter
TTITLE6=Saturday Night
TTITLE7=Woman Truck Drivin' Fool
TTITLE8=Too Many Chiefs (Not Enough Indians)
TTITLE9=I Got A Letter From Home
TTITLE10=Tracy's Waltz
TTITLE11=Meanwhile Back At The Ranch
EXTD=
EXTT0=
EXTT1=
EXTT2=
EXTT3=
EXTT4=
EXTT5=
EXTT6=
EXTT7=
EXTT8=
EXTT9=
EXTT10=
EXTT11=
PLAYORDER=
